<?xml version="1.0" encoding="UTF-8" standalone="no"?>
<!-- Created with Inkscape (http://www.inkscape.org/) -->

<svg
   width="256"
   height="256"
   viewBox="0 0 67.733334 67.733332"
   version="1.1"
   id="svg5"
   inkscape:version="1.2.2 (b0a8486541, 2022-12-01)"
   sodipodi:docname="logo.svg"
   xmlns:inkscape="http://www.inkscape.org/namespaces/inkscape"
   xmlns:sodipodi="http://sodipodi.sourceforge.net/DTD/sodipodi-0.dtd"
   xmlns:xlink="http://www.w3.org/1999/xlink"
   xmlns="http://www.w3.org/2000/svg"
   xmlns:svg="http://www.w3.org/2000/svg">
  <sodipodi:namedview
     id="namedview7"
     pagecolor="#ffffff"
     bordercolor="#000000"
     borderopacity="0.25"
     inkscape:showpageshadow="2"
     inkscape:pageopacity="0.0"
     inkscape:pagecheckerboard="0"
     inkscape:deskcolor="#d1d1d1"
     inkscape:document-units="px"
     showgrid="false"
     inkscape:zoom="2.0540133"
     inkscape:cx="188.89848"
     inkscape:cy="85.929336"
     inkscape:window-width="1862"
     inkscape:window-height="1011"
     inkscape:window-x="0"
     inkscape:window-y="0"
     inkscape:window-maximized="1"
     inkscape:current-layer="layer1" />
  <defs
     id="defs2">
    <linearGradient
       inkscape:collect="always"
       id="linearGradient4550">
      <stop
         style="stop-color:#ff9955;stop-opacity:1;"
         offset="0"
         id="stop4546" />
      <stop
         style="stop-color:#b500df;stop-opacity:1;"
         offset="1"
         id="stop4548" />
    </linearGradient>
    <linearGradient
       inkscape:collect="always"
       xlink:href="#linearGradient4550"
       id="linearGradient4552"
       x1="3.3146973e-06"
       y1="33.866669"
       x2="67.581375"
       y2="117.12355"
       gradientUnits="userSpaceOnUse" />
  </defs>
  <g
     inkscape:label="Layer 1"
     inkscape:groupmode="layer"
     id="layer1">
    <circle
       style="fill:url(#linearGradient4552);stroke:#0eaa77;stroke-width:0;stroke-opacity:0.996078;fill-opacity:1"
       id="path912"
       cx="33.866669"
       cy="33.866669"
       r="33.866665" />
    <path
       style="fill:#ff9955;stroke:#0eaa77;stroke-width:0;stroke-opacity:0.996078"
       d="M 16.933333,50.800001 -4.1235352e-7,67.733336"
       id="path1191" />
    <path
       id="path3385"
       style="fill:#ff9955;fill-opacity:0;stroke:#ffc49d;stroke-width:3.96875;stroke-linecap:round;stroke-miterlimit:1;stroke-dasharray:none;stroke-opacity:1"
       d="m 30.230195,10.547161 a 23.775387,23.607809 0 0 0 -20.138822,23.319507 23.775387,23.607809 0 0 0 23.775293,23.607861 23.775387,23.607809 0 0 0 23.486938,-20.00498 19.931021,19.956863 0 0 1 -0.06511,0.03876 19.931021,19.956863 0 0 1 -1.480013,0.724503 19.931021,19.956863 0 0 1 -1.53479,0.599447 19.931021,19.956863 0 0 1 -1.578715,0.470772 19.931021,19.956863 0 0 1 -1.612305,0.338481 19.931021,19.956863 0 0 1 -1.634525,0.204122 19.931021,19.956863 0 0 1 -1.645895,0.06821 19.931021,19.956863 0 0 1 -1.645894,-0.06821 19.931021,19.956863 0 0 1 -1.634526,-0.204122 19.931021,19.956863 0 0 1 -1.612304,-0.338481 19.931021,19.956863 0 0 1 -1.578715,-0.470772 19.931021,19.956863 0 0 1 -1.53479,-0.599447 19.931021,19.956863 0 0 1 -1.480013,-0.724503 19.931021,19.956863 0 0 1 -1.414901,-0.844393 19.931021,19.956863 0 0 1 -1.340487,-0.958081 19.931021,19.956863 0 0 1 -1.257287,-1.066085 19.931021,19.956863 0 0 1 -1.164787,-1.166337 19.931021,19.956863 0 0 1 -1.064535,-1.258838 19.931021,19.956863 0 0 1 -0.957047,-1.342553 19.931021,19.956863 0 0 1 -0.843359,-1.416968 19.931021,19.956863 0 0 1 -0.72347,-1.481564 19.931021,19.956863 0 0 1 -0.59893,-1.536857 19.931021,19.956863 0 0 1 -0.470256,-1.580782 19.931021,19.956863 0 0 1 -0.337964,-1.614371 19.931021,19.956863 0 0 1 -0.203605,-1.636593 19.931021,19.956863 0 0 1 -0.06821,-1.647961 19.931021,19.956863 0 0 1 0.06821,-1.647962 19.931021,19.956863 0 0 1 0.203605,-1.637109 19.931021,19.956863 0 0 1 0.337964,-1.613855 19.931021,19.956863 0 0 1 0.470256,-1.581299 19.931021,19.956863 0 0 1 0.59893,-1.53634 19.931021,19.956863 0 0 1 0.680061,-1.393197 z" />
    <path
       id="path4516"
       style="fill:#ff9955;fill-opacity:0;stroke:#ffc49d;stroke-width:3.96875;stroke-linecap:round;stroke-miterlimit:1;stroke-dasharray:none;stroke-opacity:1"
       d="m 30.230195,10.547161 a 19.931021,19.956863 0 0 0 -0.680061,1.393197 19.931021,19.956863 0 0 0 -0.59893,1.53634 19.931021,19.956863 0 0 0 -0.470256,1.581299 19.931021,19.956863 0 0 0 -0.337964,1.613855 19.931021,19.956863 0 0 0 -0.203605,1.637109 19.931021,19.956863 0 0 0 -0.06821,1.647962 19.931021,19.956863 0 0 0 0.06821,1.647961 19.931021,19.956863 0 0 0 0.203605,1.636593 19.931021,19.956863 0 0 0 0.337964,1.614371 19.931021,19.956863 0 0 0 0.470256,1.580782 19.931021,19.956863 0 0 0 0.59893,1.536857 19.931021,19.956863 0 0 0 0.72347,1.481564 19.931021,19.956863 0 0 0 0.843359,1.416968 19.931021,19.956863 0 0 0 0.957047,1.342553 19.931021,19.956863 0 0 0 1.064535,1.258838 19.931021,19.956863 0 0 0 1.164787,1.166337 19.931021,19.956863 0 0 0 1.257287,1.066085 19.931021,19.956863 0 0 0 1.340487,0.958081 19.931021,19.956863 0 0 0 1.414901,0.844393 19.931021,19.956863 0 0 0 1.480013,0.724503 19.931021,19.956863 0 0 0 1.53479,0.599447 19.931021,19.956863 0 0 0 1.578715,0.470772 19.931021,19.956863 0 0 0 1.612304,0.338481 19.931021,19.956863 0 0 0 1.634526,0.204122 19.931021,19.956863 0 0 0 1.645894,0.06821 19.931021,19.956863 0 0 0 1.645895,-0.06821 19.931021,19.956863 0 0 0 1.634525,-0.204122 19.931021,19.956863 0 0 0 1.612305,-0.338481 19.931021,19.956863 0 0 0 1.578715,-0.470772 19.931021,19.956863 0 0 0 1.53479,-0.599447 19.931021,19.956863 0 0 0 1.480013,-0.724503 19.931021,19.956863 0 0 0 0.06511,-0.03876 23.775387,23.607809 0 0 0 0.288355,-3.602881 23.775387,23.607809 0 0 0 -23.775293,-23.607861 23.775387,23.607809 0 0 0 -3.636471,0.288354 z" />
  </g>
</svg>
